<?xml version="1.0" standalone="no"?>
<!DOCTYPE svg PUBLIC "-//W3C//DTD SVG 20010904//EN"
 "http://www.w3.org/TR/2001/REC-SVG-20010904/DTD/svg10.dtd">
<svg version="1.0" xmlns="http://www.w3.org/2000/svg"
 width="900.000000pt" height="563.000000pt" viewBox="0 0 900.000000 563.000000"
 preserveAspectRatio="xMidYMid meet">

<g transform="translate(0.000000,563.000000) scale(0.100000,-0.100000)"
fill="#000000" stroke="none">
<path d="M200 5386 c0 -2 8 -10 18 -17 15 -13 16 -12 3 4 -13 16 -21 21 -21
13z"/>
<path d="M297 5306 c15 -13 30 -22 32 -20 6 5 -39 44 -51 44 -5 0 4 -11 19
-24z"/>
<path d="M340 5273 c0 -4 31 -34 68 -65 68 -58 359 -301 447 -373 27 -22 90
-74 140 -115 49 -42 241 -199 425 -350 862 -707 1496 -1238 1487 -1246 -2 -2
-19 -9 -39 -16 l-35 -13 36 -24 36 -23 -22 24 -23 24 31 11 c29 11 33 9 112
-60 89 -78 108 -98 101 -109 -3 -4 2 -5 10 -2 9 3 19 -3 26 -16 6 -11 15 -18
21 -15 8 6 13 -8 10 -27 0 -4 7 -4 16 -1 12 5 14 3 8 -7 -5 -8 -4 -11 3 -7 5
4 21 -2 34 -13 12 -11 73 -61 133 -111 61 -51 144 -122 185 -158 86 -77 265
-229 495 -421 88 -73 168 -140 178 -148 9 -8 17 -13 17 -9 0 3 -82 74 -182
158 -101 84 -237 200 -303 257 -66 58 -134 117 -150 131 -17 14 -64 55 -105
91 -207 178 -251 222 -239 237 9 11 9 17 0 26 -10 9 -11 8 -6 -4 11 -29 -17
-34 -40 -7 -11 13 -29 27 -39 31 -10 4 -14 12 -10 18 4 7 3 9 -2 6 -6 -3 -102
72 -215 166 -625 523 -963 805 -1299 1082 -651 536 -791 653 -1115 927 -181
153 -195 164 -195 151z"/>
<path d="M8578 4619 c-24 -13 -23 -36 2 -49 35 -19 28 -24 -72 -57 -10 -3 -18
0 -18 6 0 6 8 11 18 11 12 1 9 5 -11 16 -29 16 -57 13 -57 -6 0 -6 8 -14 18
-17 20 -8 51 -43 52 -59 0 -23 42 -48 88 -52 49 -4 136 -47 126 -63 -3 -5 0
-9 6 -9 6 0 31 -19 56 -43 44 -43 116 -77 181 -84 l33 -3 0 190 c0 145 -3 190
-12 191 -14 0 -116 0 -185 -2 -24 0 -43 -4 -43 -9 0 -11 -59 -10 -66 2 -3 4
-12 8 -21 8 -8 0 -26 9 -40 20 -29 23 -32 23 -55 9z"/>
<path d="M0 4129 c0 -8 12 -22 26 -33 24 -17 26 -17 22 -1 -4 23 -48 54 -48
34z"/>
<path d="M0 4067 c0 -8 11 -24 25 -37 29 -27 31 -21 10 20 -16 31 -35 40 -35
17z"/>
<path d="M2530 2998 c-590 -192 -1054 -312 -1400 -363 -89 -13 -147 -16 -257
-10 -140 7 -237 1 -264 -15 -41 -26 57 -38 226 -27 238 15 337 6 631 -58 168
-36 174 -37 114 -16 -30 11 -69 22 -88 26 -18 3 -36 13 -39 20 -3 8 -9 12 -14
9 -5 -3 -9 0 -9 5 0 6 13 11 29 11 16 0 31 4 33 10 3 11 178 32 254 31 28 -1
66 -6 85 -11 54 -16 65 -13 44 10 -18 20 -18 20 16 21 301 2 646 9 727 14
l102 7 -42 32 c-35 27 -58 35 -128 45 -89 13 -128 22 -222 53 -32 10 -68 18
-80 18 -13 0 -29 4 -35 8 -17 11 20 42 50 42 13 0 42 9 65 20 22 11 46 20 52
20 6 0 18 7 27 15 9 10 27 14 46 12 18 -2 24 -2 14 0 -18 4 -18 5 0 18 10 8
31 15 46 15 16 0 26 4 23 9 -3 5 14 14 39 20 24 6 47 16 50 21 4 6 10 8 15 5
5 -3 20 1 33 10 14 9 34 17 45 20 24 4 112 43 97 43 -5 0 -134 -40 -285 -90z"/>
<path d="M7669 3076 c-16 -16 -2639 -54 -2814 -41 -149 11 -192 11 -400 -7
-104 -9 -237 -17 -295 -18 -118 0 -441 -19 -452 -26 -3 -2 -37 -7 -75 -10
-144 -12 -211 -23 -219 -35 -3 -5 -20 -9 -39 -9 -19 0 -35 -6 -38 -14 -4 -11
12 -18 66 -30 129 -28 400 -64 542 -71 61 -3 198 -12 305 -20 107 -8 227 -17
265 -20 167 -11 500 -25 755 -30 479 -9 1014 -26 1030 -32 30 -11 -24 -21
-119 -22 -51 -1 -96 -3 -100 -5 -3 -2 -92 -7 -196 -11 -104 -3 -205 -9 -225
-11 -48 -7 -127 -12 -395 -26 l-230 -13 290 -7 c160 -4 1052 -8 1983 -11
l1692 -4 0 212 0 211 -192 17 c-106 9 -242 19 -303 22 -146 8 -830 17 -836 11z
m-1314 -366 c18 -8 17 -9 -7 -9 -16 -1 -28 4 -28 9 0 12 8 12 35 0z"/>
<path d="M2960 3001 c30 -28 59 -51 63 -51 5 0 5 -6 1 -12 -4 -7 -4 -10 1 -6
4 4 27 -9 50 -30 23 -20 64 -52 91 -70 l49 -34 -40 38 c-22 22 -39 42 -38 46
2 5 0 7 -5 6 -13 -4 -82 49 -74 57 4 5 2 5 -4 2 -6 -3 -21 4 -35 16 -14 12
-45 37 -69 55 -41 31 -40 29 10 -17z"/>
<path d="M2488 2943 c7 -3 16 -2 19 1 4 3 -2 6 -13 5 -11 0 -14 -3 -6 -6z"/>
<path d="M3500 2566 c0 -2 8 -10 18 -17 15 -13 16 -12 3 4 -13 16 -21 21 -21
13z"/>
<path d="M3615 2470 c10 -11 20 -20 23 -20 3 0 -3 9 -13 20 -10 11 -20 20 -23
20 -3 0 3 -9 13 -20z"/>
<path d="M4270 1975 c26 -28 173 -141 270 -209 67 -46 30 -15 -155 128 -77 60
-129 96 -115 81z"/>
<path d="M3560 1880 c8 -5 20 -10 25 -10 6 0 3 5 -5 10 -8 5 -19 10 -25 10 -5
0 -3 -5 5 -10z"/>
<path d="M3710 1820 c8 -5 20 -10 25 -10 6 0 3 5 -5 10 -8 5 -19 10 -25 10 -5
0 -3 -5 5 -10z"/>
<path d="M3890 1750 c8 -5 20 -10 25 -10 6 0 3 5 -5 10 -8 5 -19 10 -25 10 -5
0 -3 -5 5 -10z"/>
<path d="M4630 1706 c0 -2 14 -14 30 -26 17 -12 30 -19 30 -16 0 2 -13 14 -30
26 -16 12 -30 19 -30 16z"/>
<path d="M4764 1611 c7 -11 46 -35 46 -28 0 3 -12 12 -26 22 -15 9 -23 12 -20
6z"/>
<path d="M4899 1523 c13 -10 43 -28 65 -41 23 -13 30 -15 17 -5 -13 10 -43 28
-65 41 -23 13 -30 15 -17 5z"/>
<path d="M5010 1456 c0 -3 9 -10 20 -16 11 -6 20 -8 20 -6 0 3 -9 10 -20 16
-11 6 -20 8 -20 6z"/>
<path d="M5065 1422 c17 -19 312 -178 440 -238 68 -32 122 -61 120 -65 -3 -4
5 -5 17 -1 16 4 19 2 13 -8 -6 -9 -4 -11 4 -6 7 5 20 2 29 -6 16 -14 348 -137
573 -214 310 -104 996 -310 1005 -301 2 2 -34 14 -81 27 -89 24 -111 36 -47
27 l37 -6 -40 14 c-22 7 -56 11 -75 9 -28 -3 -31 -2 -15 6 16 8 13 9 -15 4
-26 -4 -31 -3 -20 5 11 8 6 10 -20 6 -28 -4 -31 -3 -15 5 16 8 13 9 -15 4 -27
-4 -32 -3 -20 6 12 8 8 9 -15 4 -24 -4 -27 -3 -15 6 12 9 9 10 -13 5 -21 -4
-27 -3 -21 6 5 9 2 10 -9 6 -10 -3 -17 -3 -17 1 0 5 -24 14 -52 22 -29 7 -125
35 -213 62 -636 194 -1017 350 -1475 601 -30 17 -50 25 -45 19z m2032 -778
c-3 -3 -12 -4 -19 -1 -8 3 -5 6 6 6 11 1 17 -2 13 -5z"/>
<path d="M8970 1013 c-14 -2 -34 -8 -45 -13 -91 -39 -125 -61 -183 -116 -37
-35 -69 -64 -72 -65 -3 -1 -21 -2 -40 -4 -61 -5 -89 -22 -112 -69 -11 -24 -32
-50 -45 -57 -13 -7 -20 -16 -15 -21 9 -9 70 18 83 36 4 4 16 3 27 -3 11 -6 30
-11 42 -11 17 0 61 -28 48 -31 -2 0 -16 -2 -32 -4 -16 -2 -38 -13 -49 -23 -19
-20 -19 -20 1 -26 29 -9 71 10 84 39 6 14 17 25 25 25 14 0 18 -16 6 -23 -5
-2 -1 -1 7 1 22 8 47 7 129 -6 47 -7 82 -7 98 -1 13 5 35 9 49 9 l24 0 0 185
c0 102 -1 184 -2 184 -2 -1 -14 -4 -28 -6z"/>
<path d="M7220 614 c44 -15 453 -118 660 -168 73 -17 90 -24 55 -21 -170 15
304 -71 600 -109 105 -14 235 -27 290 -31 55 -3 117 -8 138 -10 l37 -5 0 90 0
90 -42 2 c-24 0 -54 3 -68 4 -14 2 -132 6 -262 9 l-238 6 0 -26 c0 -24 -1 -25
-52 -19 -62 7 -366 53 -388 59 -8 2 -33 6 -55 10 -61 9 -91 14 -200 35 -55 10
-146 26 -202 34 -56 8 -146 27 -201 41 -109 27 -144 32 -72 9z m813 -201 c-7
-2 -21 -2 -30 0 -10 3 -4 5 12 5 17 0 24 -2 18 -5z m424 1 c-3 -3 -12 -4 -19
-1 -8 3 -5 6 6 6 11 1 17 -2 13 -5z m-320 -20 c-3 -3 -12 -4 -19 -1 -8 3 -5 6
6 6 11 1 17 -2 13 -5z"/>
<path d="M7295 571 c11 -4 36 -11 55 -15 24 -4 29 -3 15 3 -11 4 -36 11 -55
15 -24 4 -29 3 -15 -3z"/>
<path d="M7425 536 c22 -7 56 -16 75 -19 33 -6 33 -6 -5 7 -22 7 -56 16 -75
19 -33 6 -33 6 5 -7z"/>
<path d="M7548 503 c7 -3 16 -2 19 1 4 3 -2 6 -13 5 -11 0 -14 -3 -6 -6z"/>
<path d="M7625 484 c28 -7 57 -13 65 -13 8 0 -7 7 -35 15 -27 7 -57 13 -65 13
-8 0 8 -7 35 -15z"/>
<path d="M7718 463 c7 -3 16 -2 19 1 4 3 -2 6 -13 5 -11 0 -14 -3 -6 -6z"/>
<path d="M7795 445 c28 -7 59 -13 70 -13 11 0 -2 6 -30 13 -27 7 -59 13 -70
13 -11 0 3 -6 30 -13z"/>
</g>
</svg>
